<svg version="1.1" id="Layer_1" xmlns="http://www.w3.org/2000/svg" xmlns:xlink="http://www.w3.org/1999/xlink" x="0px" y="0px"
	 width="100%" viewBox="0 0 976 976" enable-background="new 0 0 976 976" xml:space="preserve">
<path fill="#000000" opacity="1.000000" stroke="none" 
	d="
M373.907654,548.119629 
	C366.641449,542.502075 359.759033,536.959656 352.622894,531.765747 
	C349.295532,529.343933 348.379822,527.074524 349.873627,522.992004 
	C363.547302,485.621552 377.013550,448.175232 390.531586,410.747864 
	C396.074677,395.400696 401.700775,380.082092 407.052155,364.668213 
	C408.343201,360.949432 410.112061,359.466492 414.207031,359.585754 
	C443.999908,360.453369 473.794189,361.202087 503.575409,362.491425 
	C521.044434,363.247711 538.539856,363.382599 556.021912,363.853363 
	C564.510437,364.081909 572.995972,364.668274 581.481995,364.653168 
	C586.523865,364.644196 588.982300,366.797363 590.332031,371.499054 
	C597.079407,395.002472 604.052734,418.440887 610.874390,441.923157 
	C619.412720,471.314758 627.748474,500.766266 636.502319,530.093201 
	C638.060913,535.314880 637.590149,538.115540 632.693726,541.407288 
	C586.664246,572.352234 540.823425,603.578674 495.059357,634.915588 
	C491.123627,637.610596 488.704102,637.243225 485.126556,634.450562 
	C448.225830,605.645020 411.187561,577.015747 373.907654,548.119629 
z"/>
<path fill="#000000" opacity="1.000000" stroke="none" 
	d="
M368.470642,801.661499 
	C317.588745,781.534241 274.567505,750.939819 238.824310,710.067505 
	C220.303085,688.888428 204.913544,665.607483 192.095917,640.575745 
	C190.272842,637.015503 190.524231,634.289612 192.496246,630.870911 
	C202.647705,613.272217 212.643799,595.581238 222.451035,577.788513 
	C224.781906,573.559814 227.587570,570.988159 232.451996,569.854797 
	C263.078400,562.718628 293.647522,555.335876 324.217682,547.960510 
	C327.063934,547.273865 329.224670,547.798706 331.563293,549.615479 
	C379.578766,586.915894 427.642639,624.154175 475.743652,661.344238 
	C478.076202,663.147705 479.115906,665.178955 479.210266,668.084412 
	C479.864380,688.222717 480.572235,708.359619 481.359070,728.493225 
	C481.748810,738.466370 482.232300,748.439087 482.914429,758.395508 
	C483.107361,761.211487 482.394165,763.079712 480.164154,764.805908 
	C459.225433,781.014893 438.309357,797.253906 417.501282,813.629761 
	C414.919983,815.661316 412.531799,815.853455 409.642151,815.067200 
	C395.821625,811.306641 382.102936,807.239502 368.470642,801.661499 
z"/>
<path fill="#000000" opacity="1.000000" stroke="none" 
	d="
M353.062653,434.885986 
	C343.034149,462.655975 333.067444,490.033905 323.352325,517.500854 
	C321.854126,521.736572 319.629150,523.955261 315.199585,524.988342 
	C286.020447,531.793518 256.886932,538.795837 227.767548,545.853516 
	C224.441132,546.659790 222.252960,546.188965 220.085251,543.280884 
	C200.368195,516.828918 180.545029,490.455719 160.654831,464.133606 
	C158.011154,460.635071 158.498627,456.875092 158.944702,453.133575 
	C165.740662,396.132568 185.583282,344.118011 218.810135,297.268829 
	C226.141174,286.932190 234.162247,277.133850 242.568420,267.647766 
	C244.344147,265.643890 246.281570,264.626495 249.054260,264.667114 
	C276.374084,265.067108 303.695007,265.399017 331.016541,265.655914 
	C333.839600,265.682434 335.655823,266.742828 337.171295,269.052307 
	C352.707825,292.728271 368.265564,316.390656 383.925018,339.985382 
	C386.166718,343.363068 384.895020,346.279846 383.761688,349.430695 
	C373.561432,377.789307 363.388092,406.157623 353.062653,434.885986 
z"/>
<path fill="#000000" opacity="1.000000" stroke="none" 
	d="
M766.099609,680.068481 
	C729.146362,733.492188 681.158020,772.890259 621.688843,798.193848 
	C613.734680,801.578308 605.525879,804.360168 597.490112,807.559326 
	C594.606445,808.707336 592.143311,808.437805 589.436279,806.938721 
	C563.508789,792.580261 537.547791,778.281860 511.546448,764.057556 
	C508.747681,762.526489 507.509521,760.610352 507.403839,757.384888 
	C507.104218,748.239929 506.408020,739.108643 506.040314,729.965027 
	C505.190887,708.843994 504.483856,687.717102 503.612091,666.597046 
	C503.475250,663.281616 504.451996,661.094177 507.322998,659.148621 
	C557.228821,625.330750 607.070557,591.418274 656.885132,557.466125 
	C658.911438,556.085083 660.611328,555.947388 662.890137,556.737976 
	C688.992310,565.793640 715.104065,574.823669 741.286682,583.642700 
	C744.980835,584.887024 746.511108,586.990723 747.299316,590.576294 
	C753.188416,617.363831 759.328125,644.096985 765.030884,670.923401 
	C765.631531,673.748779 769.954468,676.313965 766.099609,680.068481 
z"/>
<path fill="#000000" opacity="1.000000" stroke="none" 
	d="
M785.532043,333.551392 
	C803.975403,368.661224 816.140015,405.393616 821.488159,444.388245 
	C824.299744,464.888702 825.422424,485.414795 824.387756,506.077606 
	C824.259827,508.632385 823.499634,510.412811 821.383118,511.936066 
	C799.221863,527.885681 777.105225,543.897339 755.004700,559.931091 
	C753.164917,561.265869 751.438293,561.232788 749.387695,560.525391 
	C722.489319,551.245667 695.583801,541.986328 668.644104,532.827515 
	C665.717773,531.832581 664.506165,529.898071 663.715515,527.167603 
	C652.423279,488.173431 641.069214,449.197174 629.757996,410.208496 
	C624.335754,391.518463 619.060730,372.785034 613.502625,354.135712 
	C612.471558,350.675934 613.070068,348.176575 615.206177,345.435486 
	C631.379456,324.681641 647.477417,303.868958 663.520447,283.014282 
	C665.452087,280.503418 667.640198,279.506500 670.785706,279.744537 
	C697.828064,281.791077 724.875183,283.776459 751.927124,285.691650 
	C754.678589,285.886475 755.979370,287.627686 757.388733,289.510437 
	C767.783264,303.396851 777.208679,317.901581 785.532043,333.551392 
z"/>
<path fill="#000000" opacity="1.000000" stroke="none" 
	d="
M404.144348,325.853088 
	C388.326385,301.935974 372.751984,278.295929 357.065155,254.730682 
	C355.298248,252.076355 355.026093,249.851318 356.385406,246.903778 
	C367.260010,223.323517 378.018341,199.689423 388.730682,176.034851 
	C389.857056,173.547592 391.416931,172.241226 394.087708,171.436127 
	C421.149750,163.278290 448.746063,158.806839 477.017883,157.529678 
	C523.809814,155.415833 568.781250,163.396103 612.457336,179.846939 
	C616.410950,181.336090 618.614990,183.546173 620.014099,187.547668 
	C628.526184,211.891830 637.238770,236.166489 646.030273,260.411469 
	C647.024597,263.153503 646.557800,264.980072 644.836853,267.183594 
	C627.927124,288.834839 610.991455,310.468597 594.384460,332.351135 
	C590.905029,336.935852 587.253601,338.235138 581.682190,337.823883 
	C569.570374,336.929779 557.402222,336.761810 545.253967,336.404907 
	C505.807434,335.246063 466.359253,334.144928 426.912567,332.992554 
	C423.087585,332.880829 419.238464,332.163666 415.453918,332.445038 
	C410.138733,332.840240 406.425476,331.129425 404.144348,325.853088 
z"/>
<path fill="#000000" opacity="1.000000" stroke="none" 
	d="
M510.602783,791.332214 
	C526.170227,799.906494 541.422913,808.289429 556.954529,816.825562 
	C546.195740,824.553406 465.722046,827.708374 448.745087,821.469116 
	C448.500397,819.525879 450.246338,819.035767 451.322754,818.195190 
	C464.955170,807.547913 478.668854,797.004333 492.263763,786.309692 
	C494.933990,784.208984 497.194977,783.517029 500.262756,785.566040 
	C503.431915,787.682739 506.932465,789.303284 510.602783,791.332214 
z"/>
<path fill="#000000" opacity="1.000000" stroke="none" 
	d="
M788.739136,565.716064 
	C799.085266,558.270386 809.133972,551.023254 819.182678,543.776062 
	C819.613159,544.117432 820.043640,544.458740 820.474060,544.800110 
	C814.692017,580.469971 803.429688,614.308899 786.501587,646.254883 
	C786.009827,646.246887 785.518066,646.238831 785.026306,646.230835 
	C783.309265,638.909302 781.540588,631.599365 779.886475,624.263550 
	C776.888977,610.970398 774.056030,597.639221 770.937927,584.374817 
	C770.105713,580.834412 770.585571,578.446472 773.813416,576.352905 
	C778.834106,573.096375 783.579651,569.415588 788.739136,565.716064 
z"/>
<path fill="#000000" opacity="1.000000" stroke="none" 
	d="
M157.677567,512.093384 
	C157.666718,508.699860 157.666718,505.773071 157.666718,502.650391 
	C160.066071,503.188324 160.828171,504.993866 161.855576,506.361237 
	C174.750900,523.524170 187.528961,540.775635 200.496658,557.883423 
	C202.719711,560.816162 202.951675,563.062256 201.044098,566.321228 
	C194.153610,578.093689 187.612274,590.070129 180.885757,601.939331 
	C180.186127,603.173828 179.808289,604.778687 177.238571,605.548218 
	C166.334534,575.448120 159.599991,544.536072 157.677567,512.093384 
z"/>
<path fill="#000000" opacity="1.000000" stroke="none" 
	d="
M338.884399,226.792038 
	C336.011566,239.109863 328.737671,242.679703 316.648254,241.370331 
	C303.297821,239.924377 289.716949,240.612946 276.237030,240.343369 
	C275.100952,240.320663 273.969177,240.082687 272.496552,239.287964 
	C297.287048,216.628067 325.270447,199.075943 355.857574,185.601440 
	C356.274139,185.979645 356.690674,186.357849 357.107239,186.736053 
	C351.091125,199.976547 345.075012,213.217041 338.884399,226.792038 
z"/>
<path fill="#000000" opacity="1.000000" stroke="none" 
	d="
M676.603821,255.656036 
	C671.914490,255.910660 669.664978,254.010376 668.244202,249.879501 
	C662.891663,234.316422 657.178101,218.877640 651.635315,203.379593 
	C651.152710,202.030029 650.191467,200.696182 651.356079,198.306931 
	C680.555969,214.214783 706.594788,233.975235 729.660217,257.675140 
	C729.505310,258.267059 729.350403,258.858978 729.195557,259.450867 
	C711.811768,258.208923 694.428040,256.966949 676.603821,255.656036 
z"/>
</svg>